<svg width="71" height="23" viewBox="0 0 71 23" fill="none" xmlns="http://www.w3.org/2000/svg">
<g clip-path="url(#clip0_3107_4639)">
<path d="M59.5508 4.92462C60.4919 4.02234 61.482 3.17248 62.5165 2.37889C63.2802 1.88884 63.153 1.74246 63.1084 1.31605C63.1069 1.17461 63.0514 1.03909 62.9532 0.937315C62.8549 0.835536 62.7215 0.77521 62.5802 0.768714C62.4019 0.767361 62.2244 0.743845 62.0519 0.698707C61.8663 0.629684 61.7049 0.50804 61.5873 0.348668C61.441 0.157738 61.2946 0.304118 61.1227 0.412312C57.0559 2.95168 53.9501 7.71857 52.7218 9.12508C52.607 9.3009 52.4521 9.44702 52.27 9.5515C51.9899 9.73606 50.0106 11.4099 49.3742 11.9318C49.0305 12.2054 46.8794 13.9683 46.3002 14.4775C45.7211 14.9866 44.9828 15.5785 44.3909 16.0177C43.8598 16.4582 43.2682 16.8204 42.6343 17.0932C42.0164 17.2806 41.3674 17.3433 40.725 17.2778C40.2541 17.2332 40.2223 17.1696 40.2223 17.1696C40.2223 17.1696 40.4705 17.2014 41.336 16.7114C43.1244 15.7058 43.4363 14.8021 43.5444 14.1656C43.5957 13.9931 43.5998 13.8099 43.5561 13.6353C43.5124 13.4606 43.4227 13.3009 43.2962 13.1728C43.1817 13.0646 42.978 12.9946 42.8062 12.8482C42.6343 12.7018 42.5707 12.6637 42.5071 12.6191C42.2143 12.4218 41.9534 12.4918 41.4697 12.7146C40.5638 13.1188 39.6931 13.5978 38.8667 14.1465C37.8182 14.7632 36.7222 15.2953 35.589 15.7376C35.3663 15.8331 35.2008 15.8458 35.2072 15.8013L35.3854 15.6613C35.8441 15.1603 36.1586 14.5445 36.2955 13.8792C36.3782 13.5992 36.41 13.3446 36.1045 13.1855C35.9263 13.0901 35.7227 12.9628 35.5699 12.8737C35.4392 12.781 35.3032 12.696 35.1626 12.6191C34.9977 12.5355 34.8098 12.5087 34.628 12.5427C34.2373 12.6403 33.8561 12.7723 33.4888 12.9373C32.9796 13.1537 29.6702 14.7957 28.1491 15.394C27.0931 15.8614 25.9806 16.1888 24.8397 16.3677C24.3369 16.3677 24.4642 16.1513 24.5087 15.9731C24.5533 15.7949 24.7315 15.3749 24.7315 15.3749C24.8588 15.3749 24.216 15.3749 26.6408 14.7384C28.741 14.1593 29.1865 13.5865 29.3774 13.3574C29.5513 13.1462 29.6438 12.8798 29.6384 12.6064C29.6316 12.4225 29.5995 12.2405 29.5429 12.0654C29.4887 11.8165 29.4163 11.5719 29.3265 11.3335C29.2183 11.0407 28.5628 10.468 26.628 11.6645C24.4578 13.0137 24.0823 13.8601 24.0823 13.8601C23.7705 14.0002 22.3958 14.4966 21.6893 14.7893C20.9829 15.0821 18.1889 16.0177 17.718 16.094C17.247 16.1704 17.1516 16.2213 17.0243 16.094C16.897 15.9667 16.7442 15.744 16.7442 15.744C16.7003 15.6831 16.6396 15.6362 16.5696 15.6091C16.4995 15.582 16.4231 15.5758 16.3496 15.5912C16.2033 15.6294 16.1078 15.8013 16.2605 16.1831C16.5295 16.9092 17.0248 17.5295 17.6734 17.9524C17.3934 17.9015 17.0943 17.8442 16.7761 17.7997C15.4178 17.6395 14.0828 17.3213 12.7983 16.8514C11.6264 16.4228 10.5289 15.8129 9.54617 15.0439C9.15158 14.7575 9.1134 14.6748 9.08794 14.5666C9.07896 14.5151 9.08364 14.4621 9.1015 14.413C9.11937 14.3639 9.1498 14.3203 9.18977 14.2866C9.45049 14.0818 9.73463 13.9087 10.0362 13.771C10.4117 13.5801 24.1332 8.74322 25.0688 8.51411C26.0043 8.28499 28.0282 7.3558 33.2979 5.6247C38.5675 3.8936 40.8014 1.87611 41.1769 1.58971C41.2953 1.51776 41.3936 1.41699 41.4626 1.29681C41.5316 1.17662 41.5691 1.04093 41.5715 0.902365C41.5715 0.711435 41.5715 0.813265 41.5715 0.418676C41.5715 0.0240872 41.3042 0.106824 41.1324 0.132281C40.8716 0.194179 40.6145 0.270671 40.3623 0.361397C40.1586 0.418676 37.9693 1.44333 35.6781 2.58891C33.387 3.73449 25.3552 7.25397 24.9797 7.40671C24.6042 7.55946 22.0648 8.55229 21.352 8.8196C20.6392 9.0869 18.6026 9.71697 18.0044 9.88244C17.4061 10.0479 12.5501 11.2699 12.2128 11.3526C11.8755 11.4353 10.1508 11.8172 9.66709 11.8808C9.1834 11.9445 8.19693 12.0081 7.53504 12.0399C8.39426 10.6467 9.18233 9.21072 9.89621 7.73766C9.97186 7.58057 9.98841 7.40148 9.94283 7.23319C9.89725 7.06489 9.79259 6.91864 9.648 6.8212C9.48419 6.69597 9.33477 6.55296 9.2025 6.39478C9.16139 6.34991 9.11088 6.31466 9.05459 6.29154C8.99829 6.26842 8.93758 6.25801 8.8768 6.26105C8.81602 6.26409 8.75665 6.2805 8.70294 6.30912C8.64923 6.33774 8.60249 6.37785 8.56606 6.42661C6.94937 8.11501 5.42197 9.88671 3.99011 11.7345C2.75408 13.3496 1.68773 15.0877 0.80794 16.9214C0.597917 17.5578 0.496088 17.8379 0.769754 18.1943C1.04342 18.5507 1.26617 18.3406 1.49529 18.1943C3.09216 16.9829 4.57102 15.6234 5.91214 14.1338C6.03942 13.9874 6.17307 13.8347 6.30036 13.6756C6.29954 13.8883 6.28679 14.1008 6.26217 14.312C6.20614 14.6012 6.23185 14.9004 6.3364 15.1758C6.44095 15.4512 6.62021 15.6921 6.85406 15.8713C12.9384 20.4345 15.185 20.8036 16.3115 21.0391C17.461 21.2135 18.6248 21.2753 19.7864 21.2237C20.5367 21.1639 21.2915 21.2525 22.0075 21.4846C22.5994 21.6719 23.1064 22.0617 23.4395 22.5856C23.6114 22.9484 23.8787 22.9611 23.9423 22.7829C24.2032 22.0892 23.8341 21.2491 22.994 20.39C22.0211 19.5371 20.8872 18.8878 19.6591 18.4807C19.4173 18.3979 19.099 18.2961 18.7235 18.2006C19.0838 18.1412 19.4376 18.0474 19.78 17.9206C21.016 17.459 22.2016 16.8726 23.3186 16.1704C23.4013 16.1259 23.465 16.0813 23.535 16.1704C23.7211 16.5295 23.9338 16.8741 24.1714 17.2014C24.4133 17.456 24.6742 17.6851 25.9025 17.3987C26.8559 17.1366 27.7622 16.7264 28.5883 16.1831C29.1483 15.8649 30.1221 15.3876 30.4276 15.2539L31.4268 14.8212C31.8086 14.6557 33.3361 14.0447 33.7052 13.9047C34.6344 13.5674 34.4816 13.7901 34.4816 13.7901C34.4816 13.7901 34.0934 14.2738 33.9025 14.4775C33.6394 14.7819 33.284 14.9919 32.8905 15.0757C32.6536 15.1141 32.4107 15.0691 32.2032 14.9484C32.0862 14.8982 31.9591 14.876 31.832 14.8837C31.7048 14.8915 31.5813 14.9289 31.4713 14.993C31.3633 15.0571 31.2766 15.1517 31.2222 15.265C31.1679 15.3782 31.1482 15.505 31.1658 15.6294C31.2487 16.0425 31.4348 16.4278 31.7068 16.7496C31.9592 17.0729 32.2741 17.3421 32.6327 17.5411C32.9913 17.7401 33.3864 17.8648 33.7943 17.9079C34.4908 17.92 35.1829 17.7945 35.8309 17.5387C36.3718 17.3669 38.3766 16.3677 38.3766 16.3677C38.5421 16.2977 38.5803 16.3295 38.6248 16.3677C39.8149 18.067 40.9987 18.3597 40.9987 18.3597C42.4052 18.8307 43.7481 18.2706 44.8173 17.806C45.8662 17.2611 46.8725 16.6377 47.8276 15.9413L48.5023 15.3494C48.5023 15.3494 48.4004 15.6549 48.2731 15.9858C48.0231 16.7592 47.8442 17.5538 47.7385 18.3597C47.6113 19.3971 47.9613 19.3526 48.2095 19.3971C48.3614 19.4473 48.5247 19.4524 48.6794 19.4117C48.8342 19.3711 48.9738 19.2864 49.0814 19.168C49.2533 19.0153 49.5142 18.6907 50.0488 17.3414C50.7143 15.4971 51.6822 13.7765 52.9128 12.25C54.9134 9.6241 57.1341 7.17346 59.5508 4.92462ZM27.5954 11.8617C27.9136 11.6899 28.1682 11.7217 28.2319 11.9127C28.2653 11.9895 28.2695 12.0758 28.2437 12.1555C28.2179 12.2352 28.1639 12.3028 28.0918 12.3454C27.9391 12.46 26.0934 13.3383 25.9152 13.3828L25.6607 13.4465C26.2612 12.8662 26.9083 12.3362 27.5954 11.8617ZM39.204 15.5912C39.5667 15.3685 41.2151 14.1656 41.3424 14.0956L41.476 14.0129C41.476 14.0129 41.5715 14.0129 41.5588 14.0638C41.5269 14.1944 41.4843 14.3221 41.4315 14.4457C41.3586 14.6344 41.2601 14.8121 41.1387 14.9739C41.0231 15.1642 40.8743 15.3323 40.6996 15.4703C40.4867 15.6612 40.2199 15.7812 39.9359 15.814C39.2994 15.8776 39.204 15.5912 39.204 15.5912Z" fill="#FCFCF7"/>
<path d="M68.4795 15.3241C68.3395 15.3814 68.4095 15.3623 67.6076 15.6933C66.8057 16.0242 64.5782 16.7625 64.54 16.5779C64.5011 16.2462 64.5585 15.9104 64.7055 15.6105C65.2546 14.7476 65.8583 13.9206 66.513 13.1348C66.6339 12.9693 66.7357 13.0775 67.1494 12.5429C67.5631 12.0083 66.9076 11.7601 66.2711 11.5946C65.3362 11.4519 64.3874 11.422 63.4454 11.5055C63.2035 11.5055 63.2735 11.6774 63.3244 11.741C63.3676 11.8021 63.3864 11.8772 63.3769 11.9514C63.3675 12.0256 63.3306 12.0936 63.2735 12.142C61.5545 13.7973 59.5686 15.1507 57.3992 16.1451C56.8519 16.387 56.7628 16.3997 56.5401 16.387C56.3173 16.3742 56.3364 15.9987 56.3173 15.9033C56.3034 15.8275 56.3034 15.7499 56.3173 15.6742L56.4955 15.5787C57.7604 14.9254 58.8831 14.0277 59.7986 12.9375C59.875 12.8623 59.9357 12.7726 59.9771 12.6738C60.0185 12.5749 60.0398 12.4687 60.0398 12.3615C60.0398 12.2543 60.0185 12.1482 59.9771 12.0493C59.9357 11.9504 59.875 11.8608 59.7986 11.7856C59.5546 11.5222 59.23 11.3476 58.8758 11.2891C58.3763 11.2042 57.8648 11.2219 57.3724 11.3411C56.88 11.4604 56.417 11.6788 56.0118 11.9829C55.5233 12.2889 55.1204 12.7139 54.841 13.2182C54.5616 13.7225 54.4148 14.2894 54.4144 14.8659C53.9628 15.2427 53.4745 15.5732 52.9569 15.8524C52.696 15.9797 52.3905 16.0115 52.2441 15.8524C52.0977 15.6933 52.0086 15.5787 51.8432 15.5914C51.793 15.5963 51.7448 15.6138 51.7032 15.6423C51.5886 15.7442 51.6332 16.0878 51.665 16.7243C51.6706 16.8199 51.6953 16.9135 51.7376 16.9995C51.7798 17.0855 51.8389 17.1622 51.9112 17.225C51.9836 17.2878 52.0677 17.3356 52.1588 17.3655C52.2498 17.3953 52.3459 17.4067 52.4414 17.3989C52.7163 17.4301 52.9945 17.4107 53.2624 17.3416C53.7217 17.177 54.1649 16.9704 54.5862 16.7243C54.7962 16.5843 54.8662 16.7243 54.879 16.7625C55.1138 17.1408 55.4546 17.4418 55.8591 17.628C56.3921 17.8179 56.9744 17.8179 57.5074 17.628C58.5743 17.2467 59.536 16.6186 60.3141 15.7951C61.1277 15.1231 61.9775 14.4964 62.8598 13.9176C63.0444 13.7967 63.8463 13.1984 63.8463 13.1984L64.1136 13.3257C64.1136 13.3257 63.8527 13.5358 63.7445 13.6503C63.2896 14.1974 62.9906 14.857 62.8789 15.5596C62.7135 16.4443 63.2481 16.6925 63.5154 17.1443C63.7827 17.5962 63.7445 17.9271 64.6037 18.1117C64.9816 18.1468 65.3628 18.1046 65.7239 17.9875C66.085 17.8704 66.4184 17.681 66.7039 17.4307C67.4681 16.9121 68.1613 16.2959 68.7659 15.5978C69.0078 15.2096 68.6323 15.2732 68.4859 15.3369M57.1319 12.4984C57.7684 12.0656 57.9975 12.2183 58.093 12.3011C58.1884 12.3838 58.3921 12.5493 58.2139 12.702C58.0357 12.8548 57.1319 13.5039 56.9792 13.593C56.808 13.7297 56.6141 13.8353 56.4064 13.9049C56.396 13.6278 56.4573 13.3527 56.5844 13.1063C56.7115 12.8599 56.9001 12.6505 57.1319 12.4984Z" fill="#FCFCF7"/>
<path d="M69.9125 12.1667V11.9567C69.9125 11.893 69.9125 11.8866 69.9888 11.8866C70.0071 11.8848 70.0256 11.8869 70.043 11.8929C70.0604 11.8988 70.0763 11.9085 70.0896 11.9212C70.1029 11.9339 70.1133 11.9493 70.1201 11.9664C70.1269 11.9836 70.1299 12.0019 70.1288 12.0203C70.1308 12.0444 70.1259 12.0686 70.1146 12.09C70.1034 12.1114 70.0862 12.1292 70.0652 12.1412C70.0319 12.1508 69.9966 12.1508 69.9634 12.1412L69.9125 12.1667ZM70.4216 12.5294C70.3939 12.5136 70.3682 12.4943 70.3452 12.4722C70.2703 12.3894 70.2061 12.2974 70.1543 12.1985C70.1992 12.1884 70.2394 12.1634 70.2683 12.1276C70.2972 12.0918 70.3131 12.0472 70.3134 12.0012C70.3134 11.8294 70.1607 11.7975 70.0334 11.7975H69.6388V11.8612C69.7343 11.8612 69.7406 11.8612 69.7406 11.9694V12.364C69.7406 12.4722 69.7406 12.4722 69.6324 12.4785V12.5676H70.0207V12.4976C69.9252 12.4976 69.9125 12.4976 69.9125 12.3831V12.2431C69.9282 12.2416 69.9441 12.2452 69.9577 12.2531C69.9714 12.2611 69.9823 12.2732 69.9888 12.2876C69.9888 12.3258 70.0461 12.4022 70.097 12.4722C70.1286 12.5156 70.1712 12.5497 70.2205 12.571C70.2697 12.5923 70.3238 12.5999 70.3771 12.5931L70.4216 12.5294ZM69.9952 11.5812C70.0763 11.5818 70.1564 11.5991 70.2305 11.632C70.3046 11.6649 70.3712 11.7126 70.4261 11.7723C70.481 11.832 70.5231 11.9023 70.5496 11.9789C70.5762 12.0555 70.5868 12.1367 70.5807 12.2176C70.5708 12.3307 70.5283 12.4385 70.4583 12.5279C70.3882 12.6172 70.2937 12.6843 70.1862 12.7209C70.0788 12.7575 69.9629 12.7621 69.8529 12.7341C69.7429 12.7061 69.6434 12.6467 69.5665 12.5631C69.4896 12.4795 69.4387 12.3754 69.42 12.2635C69.4012 12.1515 69.4154 12.0365 69.4608 11.9324C69.5062 11.8284 69.5809 11.7397 69.6758 11.6774C69.7707 11.615 69.8817 11.5816 69.9952 11.5812ZM69.9952 11.4475C69.895 11.445 69.7953 11.4625 69.7019 11.4991C69.6086 11.5357 69.5235 11.5906 69.4518 11.6606C69.38 11.7306 69.323 11.8142 69.284 11.9066C69.2451 11.999 69.2251 12.0983 69.2251 12.1985C69.2225 12.2978 69.2401 12.3967 69.2769 12.489C69.3137 12.5813 69.369 12.6651 69.4392 12.7354C69.5095 12.8056 69.5933 12.8609 69.6856 12.8977C69.7779 12.9345 69.8768 12.9521 69.9761 12.9495C70.1748 12.9478 70.3648 12.8682 70.5053 12.7277C70.6458 12.5872 70.7254 12.3972 70.7271 12.1985C70.7271 11.9993 70.648 11.8083 70.5071 11.6675C70.3663 11.5266 70.1753 11.4475 69.9761 11.4475" fill="#FCFCF7"/>
</g>
<defs>
<clipPath id="clip0_3107_4639">
<rect width="70.2516" height="22.7843" fill="white" transform="translate(0.680664 0.107422)"/>
</clipPath>
</defs>
</svg>
